<svg xmlns="http://www.w3.org/2000/svg" width="1024" height="1024" viewBox="0 0 1024 1024">
<g>
<path d="M 541.00 810.95 C484.46,814.98 422.23,804.50 380.69,783.96 C333.48,760.63 303.29,722.82 292.87,674.00 C289.90,660.07 289.64,629.36 292.35,612.50 C298.24,575.91 315.57,525.77 337.40,482.21 C373.10,410.95 410.04,375.12 462.42,360.93 C471.42,358.49 486.12,355.96 487.25,356.66 C487.66,356.91 488.00,356.71 488.00,356.20 C488.00,355.70 492.84,354.99 498.75,354.63 C520.57,353.29 560.40,359.71 578.50,367.47 C580.15,368.18 583.97,369.75 587.00,370.97 C598.58,375.62 615.23,386.77 627.34,397.98 C634.42,404.53 647.71,420.58 654.70,431.01 C668.95,452.26 692.14,499.04 708.51,539.57 C737.61,611.60 738.82,667.78 712.32,717.00 C705.33,729.98 698.49,739.32 687.62,750.70 C653.74,786.19 604.50,806.42 541.00,810.95 ZM 487.50 736.55 C501.50,738.46 528.10,737.75 543.40,735.07 C563.00,731.63 582.51,724.28 597.00,714.86 C606.33,708.79 621.82,692.98 626.94,684.28 C642.32,658.18 645.10,627.03 635.48,588.62 C626.22,551.66 596.93,483.92 580.20,460.80 C570.45,447.31 557.69,435.90 545.47,429.73 C533.97,423.92 526.83,422.50 509.50,422.55 C494.87,422.59 492.81,422.82 485.50,425.27 C473.54,429.27 465.63,434.38 454.92,445.00 C443.21,456.61 436.92,466.03 425.21,489.50 C397.68,544.71 382.07,596.24 382.02,632.12 C381.93,689.74 419.94,727.38 487.50,736.55 Z" fill="rgb(25,102,43)" data-index="0"></path>
<path d="M 525.05 355.63 C515.27,354.60 506.01,354.18 498.75,354.63 C492.84,354.99 488.00,355.70 488.00,356.20 C488.00,356.71 487.66,356.91 487.25,356.66 C486.95,356.47 485.71,356.51 483.88,356.72 C484.48,356.55 484.97,356.33 485.37,355.99 C487.05,354.56 487.04,351.13 487.01,341.66 C487.01,340.25 487.00,338.70 487.00,337.00 C487.00,309.53 484.66,295.70 476.97,277.87 C471.52,265.22 464.93,255.70 454.21,245.00 C448.98,239.77 444.09,234.05 443.35,232.28 C439.51,223.13 444.99,211.75 454.50,209.13 C471.59,204.41 499.17,233.94 510.89,269.50 C517.94,290.92 520.25,313.56 518.06,339.85 C517.40,347.74 517.01,354.34 517.18,354.51 C517.33,354.65 520.69,355.12 525.05,355.63 ZM 555.00 360.47 C546.54,358.61 537.30,357.06 528.36,356.00 C537.24,357.01 546.53,358.59 555.00,360.47 ZM 479.03 357.41 C476.73,357.79 474.17,358.26 471.59,358.79 C474.49,358.16 477.05,357.66 478.50,357.48 C478.68,357.45 478.85,357.43 479.03,357.41 Z" fill="rgb(76,48,27)" data-index="1"></path>
<path d="M 525.05 355.63 C523.81,355.49 522.65,355.35 521.62,355.21 L 524.71 355.47 C528.99,355.83 533.62,356.33 535.00,356.58 C537.09,356.97 538.23,356.10 541.99,351.27 C555.60,333.80 574.55,313.42 591.86,297.63 C619.88,272.06 643.48,254.75 673.48,237.73 C681.19,233.35 686.60,230.10 685.50,230.49 C684.40,230.89 682.38,231.55 681.00,231.97 C676.57,233.33 659.81,241.70 648.19,248.36 C612.71,268.70 565.80,309.16 537.15,344.13 C531.00,351.63 528.41,354.00 526.33,354.00 C524.80,354.00 528.89,320.78 532.18,306.50 C544.82,251.72 586.71,206.43 641.26,188.55 C673.70,177.93 715.37,176.24 751.85,184.06 C755.88,184.93 757.00,185.58 757.00,187.09 C757.00,192.50 746.67,234.13 741.77,248.50 C723.14,303.05 684.75,342.86 634.72,359.47 C619.76,364.44 610.26,366.17 594.00,366.87 L 579.50 367.50 L 587.00 370.84 C598.78,376.10 609.85,383.08 620.12,391.73 C609.17,382.82 596.41,374.75 587.00,370.97 C583.97,369.75 580.15,368.18 578.50,367.47 C572.55,364.92 564.24,362.51 555.00,360.47 C546.53,358.59 537.24,357.01 528.36,356.00 C527.25,355.87 526.15,355.75 525.05,355.63 ZM 517.45 298.57 C516.21,288.92 514.16,279.67 511.26,270.65 C513.55,277.46 515.36,284.47 516.57,291.50 C516.91,293.46 517.20,295.86 517.45,298.57 ZM 730.20 660.34 C732.27,642.41 731.44,623.41 727.69,603.04 C727.96,604.48 728.22,605.92 728.47,607.36 C731.62,625.69 732.18,643.44 730.20,660.34 ZM 672.67 462.11 C666.71,450.76 661.08,440.86 656.31,433.46 C661.50,441.36 666.51,450.17 672.67,462.11 ZM 710.59 544.82 C709.92,543.08 709.22,541.33 708.51,539.57 C704.09,528.63 699.17,517.23 694.07,506.00 C700.55,520.08 706.01,532.89 710.59,544.82 ZM 495.03 237.25 C486.53,224.71 476.64,215.14 467.61,210.95 C468.62,211.41 469.63,211.93 470.65,212.53 C479.32,217.59 487.74,226.34 495.03,237.25 ZM 710.69 719.96 C711.24,719.00 711.78,718.01 712.32,717.00 C719.00,704.60 723.91,691.76 727.07,678.33 C723.64,693.02 718.16,706.96 710.69,719.96 ZM 442.90 220.87 C442.02,223.73 441.85,226.79 442.53,229.74 C441.56,226.81 441.77,224.07 442.90,220.87 ZM 453.54 209.43 C449.93,210.68 446.97,213.22 444.97,216.38 C447.08,212.84 450.04,210.50 453.54,209.43 ZM 649.38 423.57 C645.37,418.23 640.66,412.44 636.33,407.48 C638.07,409.42 639.79,411.43 641.47,413.48 C644.33,416.98 646.93,420.28 649.38,423.57 ZM 517.39 348.75 C517.53,346.65 517.72,344.11 517.94,341.35 C517.87,342.49 517.79,343.59 517.71,344.66 ZM 447.75 238.10 C449.61,240.24 451.88,242.67 454.21,245.00 C451.62,242.41 449.48,240.14 447.75,238.10 Z" fill="rgb(86,169,92)" data-index="2"></path>

</g>
</svg>